<?xml version="1.0" standalone="no"?>
<!DOCTYPE svg PUBLIC "-//W3C//DTD SVG 20010904//EN"
 "http://www.w3.org/TR/2001/REC-SVG-20010904/DTD/svg10.dtd">
<svg version="1.0" xmlns="http://www.w3.org/2000/svg"
 width="360.000000pt" height="360.000000pt" viewBox="0 0 360.000000 360.000000"
 preserveAspectRatio="xMidYMid meet">

<g transform="translate(0.000000,360.000000) scale(0.100000,-0.100000)"
fill="#000000" stroke="none">
<path d="M1641 3129 c-197 -38 -365 -160 -443 -319 -58 -120 -72 -186 -72
-335 1 -81 7 -157 17 -201 89 -393 361 -666 662 -663 145 1 259 50 387 168
191 176 299 457 285 739 -9 193 -58 313 -177 433 -89 90 -199 149 -322 174
-83 16 -264 19 -337 4z m35 -418 c120 -106 262 -132 449 -84 66 16 136 13 162
-8 28 -24 51 -90 63 -182 15 -114 -3 -204 -69 -332 -85 -167 -183 -272 -307
-332 -164 -79 -335 -45 -482 96 -137 130 -242 366 -242 542 0 67 18 83 112 98
117 19 187 73 249 194 11 20 22 37 25 37 4 0 21 -13 40 -29z"/>
<path d="M1180 1550 c-100 -21 -166 -43 -235 -77 -188 -94 -347 -254 -425
-427 -51 -113 -60 -174 -60 -394 l0 -202 1335 0 c734 0 1338 1 1343 3 4 1 7
94 6 207 0 163 -4 218 -18 270 -41 152 -151 317 -286 427 -81 67 -260 157
-365 184 -47 12 -128 23 -196 26 l-116 6 -52 -36 c-188 -130 -457 -124 -640
15 -32 24 -174 23 -291 -2z"/>
</g>
</svg>
