<?xml version="1.0" standalone="no"?>
<!DOCTYPE svg PUBLIC "-//W3C//DTD SVG 20010904//EN"
 "http://www.w3.org/TR/2001/REC-SVG-20010904/DTD/svg10.dtd">
<svg version="1.0" xmlns="http://www.w3.org/2000/svg"
 width="225.000000pt" height="225.000000pt" viewBox="0 0 225.000000 225.000000"
 preserveAspectRatio="xMidYMid meet">

<g transform="translate(0.000000,225.000000) scale(0.100000,-0.100000)"
fill="#000000" stroke="none">
<path d="M1040 1959 c-64 -11 -159 -55 -211 -98 -51 -42 -106 -127 -136 -207
-20 -54 -26 -95 -31 -189 l-5 -119 44 -38 44 -38 5 117 5 116 280 94 280 93
92 -92 93 -93 0 -118 0 -118 46 38 46 37 -4 131 c-6 143 -24 208 -78 284 -32
43 -115 97 -165 107 -24 4 -36 16 -55 52 l-25 47 -85 2 c-47 0 -110 -3 -140
-8z"/>
<path d="M900 1290 c-15 -29 -3 -59 26 -66 30 -8 54 11 54 40 0 46 -59 64 -80
26z"/>
<path d="M1282 1298 c-17 -17 -15 -53 3 -68 20 -17 62 -5 70 20 14 44 -41 80
-73 48z"/>
<path d="M810 676 c-178 -63 -300 -165 -374 -313 -31 -62 -56 -160 -56 -220
l0 -43 746 0 747 0 -7 70 c-7 77 -38 173 -80 244 -57 97 -183 199 -309 249
-120 48 -107 58 -194 -151 -42 -100 -79 -179 -83 -175 -4 4 -12 46 -19 92 -11
81 -10 86 11 108 l22 23 -44 45 -44 45 -45 -45 -45 -44 22 -24 c21 -22 22 -26
11 -108 -7 -46 -15 -88 -19 -92 -4 -4 -41 74 -82 175 -42 100 -80 184 -85 185
-4 1 -37 -8 -73 -21z"/>
</g>
</svg>
