<?xml version="1.0" standalone="no"?>
<!DOCTYPE svg PUBLIC "-//W3C//DTD SVG 20010904//EN"
 "http://www.w3.org/TR/2001/REC-SVG-20010904/DTD/svg10.dtd">
<svg version="1.0" xmlns="http://www.w3.org/2000/svg"
 width="512.000000pt" height="512.000000pt" viewBox="0 0 512.000000 512.000000"
 preserveAspectRatio="xMidYMid meet">

<g transform="translate(0.000000,512.000000) scale(0.100000,-0.100000)"
fill="#000000" stroke="none">
<path d="M2455 3249 c-587 -57 -1025 -588 -965 -1173 48 -468 368 -834 830
-946 135 -33 345 -33 480 0 461 112 783 479 830 946 60 591 -376 1115 -978
1174 -53 5 -101 9 -107 8 -5 0 -46 -4 -90 -9z"/>
<path d="M875 1280 c-114 -44 -180 -141 -180 -265 0 -54 5 -80 23 -115 33 -64
87 -115 145 -141 72 -30 185 -24 250 14 89 52 138 138 139 242 1 198 -194 335
-377 265z"/>
</g>
</svg>
