<?xml version="1.0" standalone="no"?>
<!DOCTYPE svg PUBLIC "-//W3C//DTD SVG 20010904//EN"
 "http://www.w3.org/TR/2001/REC-SVG-20010904/DTD/svg10.dtd">
<svg version="1.0" xmlns="http://www.w3.org/2000/svg"
 width="308.000000pt" height="282.000000pt" viewBox="0 0 308.000000 282.000000"
 preserveAspectRatio="xMidYMid meet">
<metadata>
Created by potrace 1.16, written by Peter Selinger 2001-2019
</metadata>
<g transform="translate(0.000000,282.000000) scale(0.100000,-0.100000)"
fill="#000000" stroke="none">
<path d="M1855 2812 c-13 -9 -18 -35 -6 -28 5 4 12 2 16 -4 5 -9 -6 -14 -26
-12 -3 1 -3 -11 0 -26 5 -26 6 -26 9 -4 2 15 9 22 17 18 8 -3 16 0 18 7 2 7 3
5 2 -3 0 -8 -7 -14 -14 -12 -7 1 -10 -2 -7 -7 3 -5 -4 -20 -15 -35 -27 -34
-17 -33 17 2 15 15 22 20 16 11 -7 -9 -9 -19 -5 -22 3 -4 1 -7 -6 -7 -7 0 -9
-5 -5 -12 4 -6 3 -8 -2 -5 -6 3 -16 1 -24 -5 -12 -8 -12 -9 3 -4 9 3 17 1 17
-4 0 -5 7 -7 15 -4 8 4 12 11 8 17 -4 6 -1 7 7 2 10 -6 9 -11 -5 -22 -16 -11
-14 -17 6 -15 8 1 -2 -47 -11 -53 -4 -2 -5 6 -3 18 3 14 -3 26 -15 34 -15 9
-19 8 -19 -2 0 -8 5 -13 10 -12 18 4 14 -54 -5 -79 -29 -36 -14 -29 28 14 20
20 31 28 23 17 -8 -11 -18 -23 -22 -26 -5 -3 -8 -9 -8 -13 3 -19 0 -27 -7 -22
-4 2 -14 0 -22 -6 -12 -8 -12 -9 3 -4 9 3 17 1 17 -4 0 -5 7 -7 15 -4 8 4 12
11 8 17 -4 6 -1 7 7 2 10 -6 9 -11 -5 -22 -16 -11 -14 -17 6 -15 8 1 -2 -47
-11 -53 -4 -2 -5 6 -3 18 3 14 -3 26 -15 34 -15 9 -19 8 -19 -2 0 -8 5 -13 10
-12 18 4 14 -54 -5 -79 -15 -19 -16 -23 -4 -18 9 3 16 11 16 16 0 7 4 7 13 1
6 -6 20 -9 30 -8 9 2 15 -1 11 -6 -3 -5 -10 -7 -15 -3 -6 3 -9 -2 -7 -11 2
-10 -4 -20 -12 -22 -11 -3 -11 -2 -3 4 8 6 9 14 3 23 -7 11 -10 12 -10 2 0 -8
-5 -10 -12 -6 -7 5 -5 -3 4 -16 9 -14 21 -24 26 -23 11 2 3 -45 -9 -53 -5 -3
-6 2 -3 10 3 9 1 16 -4 16 -6 0 -9 -9 -7 -20 2 -10 -5 -30 -16 -44 -16 -20
-17 -24 -5 -20 9 3 16 11 16 16 0 7 4 7 13 1 6 -6 20 -9 30 -8 9 2 15 -1 11
-6 -3 -5 -10 -7 -15 -4 -13 9 -5 -30 10 -49 12 -14 12 -16 -1 -11 -11 4 -17
-2 -20 -20 -4 -19 -2 -25 8 -21 7 3 16 0 20 -6 4 -7 3 -8 -5 -4 -6 4 -14 0
-17 -8 -10 -27 -22 -18 -18 14 2 17 0 30 -4 30 -4 0 -8 -10 -9 -22 0 -13 -2
-30 -5 -38 -3 -8 -3 -12 -1 -7 3 4 9 5 14 1 5 -3 5 -14 -2 -25 -6 -12 -8 -23
-5 -27 3 -3 6 0 6 7 0 7 4 10 9 7 5 -3 8 2 7 10 0 9 7 18 17 19 9 2 15 -1 11
-6 -3 -5 -10 -6 -16 -3 -7 5 -9 2 -6 -7 3 -8 0 -23 -8 -33 -10 -15 -17 -16
-27 -8 -10 9 -14 8 -14 -2 0 -17 35 -15 46 2 6 10 10 10 21 -3 11 -13 10 -15
-4 -9 -12 5 -16 0 -17 -17 0 -13 -3 -18 -6 -11 -6 16 -20 15 -20 -2 0 -9 9
-13 24 -11 13 1 26 -2 30 -8 3 -6 2 -7 -4 -4 -9 6 -36 -20 -40 -39 -1 -5 -3
-16 -6 -24 -2 -8 -2 -12 0 -7 3 4 8 5 13 2 4 -3 7 3 6 11 0 9 7 18 17 19 9 2
15 -1 11 -6 -3 -5 -10 -6 -16 -3 -7 5 -9 2 -6 -7 3 -8 0 -23 -8 -33 -10 -15
-17 -16 -27 -8 -10 9 -14 8 -14 -2 0 -17 35 -15 46 2 6 10 10 10 21 -3 11 -13
10 -15 -4 -9 -12 5 -16 0 -17 -17 0 -13 -3 -18 -6 -11 -6 16 -20 15 -20 -2 0
-9 9 -13 24 -11 13 1 26 -2 30 -8 3 -6 1 -7 -5 -3 -12 7 -58 -71 -48 -82 3 -3
6 0 6 7 0 7 5 9 10 6 7 -4 6 -14 -1 -28 -9 -20 -9 -20 4 -4 13 15 16 16 27 2
11 -13 10 -14 -4 -9 -12 5 -16 0 -17 -17 0 -13 -3 -18 -6 -11 -6 16 -20 15
-20 -2 0 -9 9 -13 24 -11 13 1 26 -2 30 -8 3 -6 1 -7 -5 -3 -7 4 -18 -6 -27
-25 -9 -17 -12 -28 -5 -24 12 7 7 -35 -6 -56 -5 -8 -3 -9 6 -4 10 6 12 1 8
-19 -4 -20 -2 -26 8 -22 18 7 29 -13 15 -27 -20 -20 -11 -30 11 -11 20 18 20
17 -2 -13 -13 -18 -24 -33 -25 -33 -5 0 2 48 9 58 4 7 6 16 3 19 -3 2 -13 -10
-22 -27 -9 -18 -12 -29 -5 -25 12 7 7 -35 -6 -56 -5 -8 -3 -9 6 -4 10 6 12 1
8 -19 -3 -14 -1 -26 3 -26 5 0 9 6 9 14 0 8 9 14 19 13 11 0 17 -5 15 -9 -3
-5 -10 -5 -16 -2 -6 4 -8 -1 -4 -14 4 -11 2 -23 -4 -27 -5 -3 -10 -11 -10 -17
0 -6 10 -3 22 8 20 18 20 17 -2 -13 -13 -18 -24 -33 -25 -33 -5 0 2 48 9 58 4
7 6 16 3 19 -3 2 -13 -10 -22 -27 -9 -18 -12 -29 -5 -25 11 7 8 -34 -5 -55 -4
-6 -3 -10 2 -9 19 3 23 -2 13 -21 -8 -14 -8 -20 0 -20 6 0 5 -11 -4 -28 -12
-23 -12 -29 -1 -29 7 0 11 6 8 13 -2 6 0 15 6 19 6 3 8 17 5 30 -5 20 -2 24
14 22 12 0 18 -5 16 -9 -3 -5 -10 -5 -16 -2 -6 4 -8 -1 -4 -14 4 -11 2 -23 -4
-27 -5 -3 -10 -11 -10 -17 0 -6 10 -3 22 8 20 18 20 17 -2 -13 -13 -18 -26
-30 -30 -28 -4 2 -7 -2 -7 -10 0 -8 4 -12 8 -10 3 3 13 -3 20 -12 12 -15 12
-16 -6 -9 -11 4 -16 4 -13 0 4 -4 3 -15 -3 -25 -7 -13 -6 -19 1 -19 6 0 5 -11
-4 -28 -12 -23 -12 -29 -1 -29 7 0 11 6 8 13 -2 6 0 15 6 19 6 3 8 17 5 30 -5
20 -2 24 14 22 12 0 18 -5 16 -9 -3 -5 -10 -5 -16 -2 -6 4 -8 -1 -4 -14 4 -11
2 -23 -4 -27 -5 -3 -10 -11 -10 -17 0 -6 10 -3 22 8 20 18 20 17 -2 -13 -13
-18 -26 -30 -30 -28 -4 2 -7 -2 -7 -10 0 -8 4 -12 8 -10 3 3 13 -3 20 -12 12
-14 12 -16 -2 -11 -9 4 -16 1 -16 -6 0 -8 10 -12 24 -10 13 1 21 -2 17 -7 -3
-5 -10 -7 -15 -4 -5 4 -9 2 -9 -4 0 -6 -6 -9 -12 -7 -7 1 -10 1 -6 -1 5 -3 3
-14 -3 -25 -9 -16 -8 -19 2 -13 9 6 11 3 6 -9 -4 -9 -3 -14 2 -11 5 3 12 1 16
-5 5 -9 -6 -14 -26 -12 -3 1 -6 -5 -6 -13 0 -8 4 -12 8 -10 3 3 13 -3 20 -12
12 -14 12 -16 -2 -11 -9 4 -16 1 -16 -6 0 -8 10 -12 24 -10 12 1 25 -2 28 -6
3 -5 -4 -7 -15 -5 -11 2 -20 0 -20 -5 0 -5 -6 -8 -12 -6 -7 1 -10 1 -6 -1 5
-3 3 -14 -3 -25 -9 -16 -8 -19 2 -13 9 6 11 3 6 -9 -4 -9 -3 -14 2 -11 5 3 12
1 16 -5 5 -9 -6 -14 -26 -12 -3 1 -6 -5 -6 -13 0 -8 4 -12 8 -10 3 3 13 -3 20
-12 12 -14 12 -16 -2 -11 -9 4 -16 1 -16 -6 0 -8 10 -12 24 -10 12 1 25 -2 28
-6 3 -5 -4 -7 -15 -5 -11 2 -20 0 -20 -5 0 -5 -6 -8 -12 -6 -7 1 -10 1 -6 -1
4 -2 4 -12 1 -21 -4 -14 -3 -14 5 -3 6 8 17 16 26 17 8 1 30 14 49 28 19 14
39 26 45 26 7 0 12 4 12 9 0 5 19 20 43 34 23 14 49 34 58 44 20 22 61 58 82
69 8 5 48 45 88 89 39 44 87 97 105 117 19 20 34 40 34 42 0 5 18 29 45 60 19
21 145 216 152 233 4 10 10 20 14 23 11 8 155 309 179 375 151 416 207 672
244 1118 l5 57 -607 0 c-334 -1 -612 -4 -617 -8z"/>
</g>
</svg>
